<?xml version="1.0" encoding="utf-8"?>
<!-- Generator: Adobe Illustrator 16.0.0, SVG Export Plug-In . SVG Version: 6.00 Build 0)  -->
<!DOCTYPE svg PUBLIC "-//W3C//DTD SVG 1.1//EN" "http://www.w3.org/Graphics/SVG/1.1/DTD/svg11.dtd">
<svg version="1.1" id="Ebene_1" xmlns="http://www.w3.org/2000/svg" xmlns:xlink="http://www.w3.org/1999/xlink" x="0px" y="0px"
	 width="595.279px" height="841.891px" viewBox="0 0 595.279 841.891" enable-background="new 0 0 595.279 841.891"
	 xml:space="preserve">
<g>
	<g>
		<path fill="#F9D2BF" d="M364.581,534.081c-4.072-0.22-7.136-5.667-6.874-12.305c0.155-3.952,1.461-7.663,1.6-11.27
			c2.099-54.355-1.124-75.18-1.034-96.41c0.029-6.728,5.77-7.569,9.939-7.886c4.168-0.309,10.451,0.75,10.421,7.478
			c-0.091,21.775-4.448,42.045-6.591,97.522c-0.133,3.427,0.882,7.064,0.737,10.8c-0.267,6.737-3.854,12.144-8.016,12.076
			C364.702,534.088,364.642,534.085,364.581,534.081z"/>
		<path fill="#F9D2BF" d="M370.095,423.542c-5.9,0.515-18.653-19.743-20.053-29.4c-1.337-9.232-3.085-16.363-3.478-22.007
			c-0.877-12.624,0.396-17.397-4.59-18.749c-6.42-1.74-12.81-21.151-12.277-31.351c0.525-10.199,6.159-17.055,12.578-15.318
			c24.697,6.694,30.371,53.919,36.393,95.496c1.482,10.237-1.242,19.651-7.51,21.155
			C370.805,423.452,370.449,423.511,370.095,423.542z"/>
	</g>
	<g>
		<path fill="#F9D2BF" d="M238.274,533.956c4.072-0.22,7.136-5.667,6.874-12.305c-0.155-3.952-1.461-7.663-1.6-11.27
			c-2.098-54.355,1.124-75.18,1.034-96.41c-0.029-6.728-5.77-7.569-9.939-7.886c-4.168-0.309-10.451,0.75-10.421,7.478
			c0.091,21.775,4.448,42.045,6.591,97.522c0.132,3.427-0.882,7.064-0.738,10.8c0.267,6.737,3.854,12.144,8.016,12.076
			C238.154,533.963,238.213,533.96,238.274,533.956z"/>
		<path fill="#F9D2BF" d="M232.76,423.417c5.9,0.515,18.653-19.743,20.053-29.4c1.337-9.232,3.084-16.363,3.478-22.007
			c0.877-12.624-0.397-17.397,4.589-18.749c6.42-1.74,12.81-21.151,12.278-31.351c-0.526-10.199-6.16-17.055-12.578-15.318
			c-24.698,6.694-30.372,53.919-36.393,95.496c-1.482,10.237,1.242,19.651,7.51,21.155
			C232.05,423.327,232.406,423.386,232.76,423.417z"/>
	</g>
	<g>
		
			<line fill="none" stroke="#FBD3C2" stroke-width="4" stroke-linecap="round" stroke-miterlimit="10" x1="265.2" y1="708.566" x2="265.2" y2="800.705"/>
		
			<line fill="none" stroke="#FBD3C2" stroke-width="4" stroke-linecap="round" stroke-miterlimit="10" x1="335.119" y1="707.992" x2="335.119" y2="800.131"/>
		<path fill="#FBD3C2" d="M369.023,164.547c0,89.457-15.898,126.619-64.361,126.619c-48.464,0-67.618-37.162-67.618-126.619
			s19.537-99.226,68.001-99.226S369.023,75.09,369.023,164.547z"/>
		<polygon fill="#E31F68" points="369.023,130.643 237.044,130.643 241.448,86.967 363.661,88.117 		"/>
		<circle cx="260.028" cy="160.524" r="6.321"/>
		<circle cx="347.186" cy="160.524" r="6.321"/>
		<line fill="none" stroke="#000000" stroke-miterlimit="10" x1="260.028" y1="219.523" x2="344.122" y2="219.523"/>
		<line fill="none" stroke="#000000" stroke-miterlimit="10" x1="290.296" y1="227.377" x2="314.048" y2="227.377"/>
		<path fill="#FBD3C2" d="M346.421,529.271c0,27.774-20.113,50.379-45.016,50.379l0,0c-24.902,0-45.016-22.604-45.016-50.379
			V337.714c0-27.776,20.113-50.379,45.016-50.379l0,0c24.901,0,45.016,22.604,45.016,50.379V529.271z"/>
		<path fill="#2D1A05" d="M241.448,87.159c0,0-9.961-25.668-4.789-32.948c5.363-7.279,17.432,4.406,20.688,9.578
			s-7.088-16.474,2.682-20.113c9.771-3.639,24.902,15.133,24.902,15.133s-0.957-21.837,9.195-21.837
			c9.96,0,21.262,15.516,20.112,20.114c-1.149,4.597,8.236-19.539,15.898-20.114c7.662-0.383,6.704,21.646,5.172,25.094
			c-1.531,3.448,10.152-16.474,22.029-14.175c11.876,2.298-3.64,26.243-3.64,26.243s14.94-21.263,20.305-15.325
			c5.172,5.938-10.152,29.308-10.152,29.308L241.448,87.159z"/>
		<polygon fill="#34509A" points="256.581,534.442 346.421,534.442 353.509,707.992 319.411,707.992 301.405,579.649 
			282.823,707.992 248.536,707.992 		"/>
	</g>
	<path fill="#FFDC00" d="M346.612,527.812l0.237-137.294l-15.431-56.535c0-18.644,6.801-31.504-6.795-39.921l0.057,13.786
		c0,13.17-9.719,18.173-21.466,18.173h-0.437c-11.748,0-24.466-5.003-24.466-18.173l0.057-13.786
		c-13.596,8.417-6.795,21.277-6.795,39.921l-15.435,56.58l0.241,137.249H346.612z"/>
</g>
</svg>
