<?xml version="1.0" encoding="utf-8"?>
<!-- Generator: Adobe Illustrator 16.0.0, SVG Export Plug-In . SVG Version: 6.00 Build 0)  -->
<!DOCTYPE svg PUBLIC "-//W3C//DTD SVG 1.1//EN" "http://www.w3.org/Graphics/SVG/1.1/DTD/svg11.dtd">
<svg version="1.1" id="Ebene_1" xmlns="http://www.w3.org/2000/svg" xmlns:xlink="http://www.w3.org/1999/xlink" x="0px" y="0px"
	 width="595.279px" height="841.891px" viewBox="0 0 595.279 841.891" enable-background="new 0 0 595.279 841.891"
	 xml:space="preserve">
<g>
	<path fill="#F9D2BF" d="M385.499,528.039c-6.607,0-12.039-5.274-12.197-11.916c-0.094-3.955,1.692-7.731,1.603-11.34
		c-1.356-54.39-8.39-75.01-10.101-96.214c-0.542-6.719,8.673-7.869,15.393-8.41c6.717-0.533,16.974,0.184,17.514,6.904
		c1.756,21.748-3.521,42.225-2.141,97.736c0.086,3.429,2.047,7.006,2.138,10.744c0.159,6.741-5.174,12.333-11.913,12.491
		C385.694,528.039,385.597,528.039,385.499,528.039z"/>
	<path fill="#F9D2BF" d="M380.493,418.69c-9.596,0-27.326-21.291-28.223-31.033c-0.859-9.312-2.676-16.568-2.514-22.225
		c0.361-12.652,3.091-17.297-4.768-19.078c-10.115-2.291-17.691-22.185-15.4-32.3c2.291-10.114,12.348-16.455,22.463-14.166
		c38.924,8.817,41.425,56.356,45.285,98.299c0.951,10.328-4.774,19.469-15.103,20.422
		C381.651,418.663,381.067,418.69,380.493,418.69z"/>
</g>
<g>
	<path fill="#F9D2BF" d="M217.356,525.894c6.607,0,12.039-5.274,12.197-11.915c0.094-3.957-1.693-7.732-1.604-11.34
		c1.357-54.391,8.393-75.011,10.102-96.214c0.541-6.721-8.672-7.869-15.393-8.412c-6.717-0.533-16.973,0.186-17.514,6.906
		c-1.756,21.747,3.521,42.224,2.141,97.735c-0.084,3.429-2.049,7.006-2.137,10.746c-0.162,6.737,5.172,12.331,11.912,12.489
		C217.16,525.894,217.258,525.894,217.356,525.894z"/>
	<path fill="#F9D2BF" d="M222.362,416.546c9.596,0,27.326-21.291,28.225-31.033c0.857-9.314,2.674-16.57,2.512-22.225
		c-0.361-12.654-3.092-17.298,4.768-19.079c10.115-2.292,17.693-22.185,15.4-32.3c-2.291-10.114-12.348-16.455-22.463-14.166
		c-38.926,8.817-41.424,56.357-45.285,98.298c-0.949,10.328,4.773,19.471,15.102,20.422
		C221.205,416.517,221.787,416.546,222.362,416.546z"/>
</g>
<g>
	
		<line fill="none" stroke="#FBD3C2" stroke-width="4" stroke-linecap="round" stroke-miterlimit="10" x1="265.102" y1="708.566" x2="265.102" y2="800.705"/>
	
		<line fill="none" stroke="#FBD3C2" stroke-width="4" stroke-linecap="round" stroke-miterlimit="10" x1="335.02" y1="707.992" x2="335.02" y2="800.131"/>
	<path fill="#FBD3C2" d="M368.925,164.547c0,89.457-15.898,126.619-64.361,126.619c-48.463,0-67.618-37.162-67.618-126.619
		s19.537-99.226,68-99.226C353.41,65.322,368.925,75.09,368.925,164.547z"/>
	<polygon fill="#E31F68" points="368.925,130.643 236.946,130.643 241.35,86.967 363.562,88.117 	"/>
	<circle cx="259.93" cy="160.524" r="6.321"/>
	<circle cx="347.088" cy="160.524" r="6.321"/>
	<line fill="none" stroke="#000000" stroke-miterlimit="10" x1="259.93" y1="219.523" x2="344.023" y2="219.523"/>
	<line fill="none" stroke="#000000" stroke-miterlimit="10" x1="290.198" y1="227.377" x2="313.949" y2="227.377"/>
	<path fill="#FBD3C2" d="M346.322,529.271c0,27.774-20.113,50.379-45.016,50.379l0,0c-24.902,0-45.015-22.604-45.015-50.379V337.714
		c0-27.776,20.113-50.379,45.015-50.379l0,0c24.901,0,45.016,22.604,45.016,50.379V529.271z"/>
	<path fill="#2D1A05" d="M241.35,87.159c0,0-9.961-25.668-4.789-32.948c5.363-7.279,17.432,4.406,20.688,9.578
		s-7.088-16.474,2.682-20.113c9.771-3.639,24.902,15.133,24.902,15.133s-0.957-21.837,9.195-21.837
		c9.959,0,21.261,15.516,20.112,20.114c-1.149,4.597,8.236-19.539,15.898-20.114c7.662-0.383,6.704,21.646,5.172,25.094
		c-1.531,3.448,10.152-16.474,22.029-14.175c11.876,2.298-3.64,26.243-3.64,26.243s14.94-21.263,20.305-15.325
		c5.172,5.938-10.152,29.308-10.152,29.308L241.35,87.159z"/>
	<polygon fill="#34509A" points="256.483,534.442 346.322,534.442 353.41,707.992 319.312,707.992 301.306,579.649 282.725,707.992 
		248.438,707.992 	"/>
</g>
<path fill="#FFDC00" d="M346.513,527.812l0.237-137.294l-15.431-56.535c0-18.644,6.801-31.504-6.795-39.921l0.057,13.786
	c0,13.17-9.719,18.173-21.466,18.173h-0.437c-11.748,0-24.465-5.003-24.465-18.173l0.057-13.786
	c-13.597,8.417-6.795,21.277-6.795,39.921l-15.435,56.58l0.241,137.249H346.513z"/>
</svg>
