<?xml version="1.0" encoding="utf-8"?>
<!-- Generator: Adobe Illustrator 16.0.0, SVG Export Plug-In . SVG Version: 6.00 Build 0)  -->
<!DOCTYPE svg PUBLIC "-//W3C//DTD SVG 1.1//EN" "http://www.w3.org/Graphics/SVG/1.1/DTD/svg11.dtd">
<svg version="1.1" id="Ebene_1" xmlns="http://www.w3.org/2000/svg" xmlns:xlink="http://www.w3.org/1999/xlink" x="0px" y="0px"
	 width="595.279px" height="841.891px" viewBox="0 0 595.279 841.891" enable-background="new 0 0 595.279 841.891"
	 xml:space="preserve">
<line fill="none" stroke="#FBD3C2" stroke-width="4" stroke-linecap="round" stroke-miterlimit="10" x1="263.199" y1="708.566" x2="263.199" y2="800.705"/>
<line fill="none" stroke="#FBD3C2" stroke-width="4" stroke-linecap="round" stroke-miterlimit="10" x1="333.118" y1="707.992" x2="333.118" y2="800.131"/>
<path fill="#FBD3C2" d="M367.022,164.547c0,89.457-15.898,126.619-64.361,126.619c-48.463,0-67.618-37.162-67.618-126.619
	s19.537-99.226,68-99.226C351.508,65.322,367.022,75.09,367.022,164.547z"/>
<polygon fill="#E31F68" points="367.022,130.643 235.043,130.643 239.448,86.967 361.66,88.117 "/>
<g>
	<circle cx="258.028" cy="160.524" r="6.321"/>
	<circle cx="345.185" cy="160.524" r="6.321"/>
</g>
<line fill="none" stroke="#000000" stroke-miterlimit="10" x1="258.028" y1="219.523" x2="342.121" y2="219.523"/>
<line fill="none" stroke="#000000" stroke-miterlimit="10" x1="288.295" y1="227.377" x2="312.047" y2="227.377"/>
<path fill="#FBD3C2" d="M344.42,529.271c0,27.774-20.113,50.379-45.016,50.379l0,0c-24.902,0-45.015-22.604-45.015-50.379V337.714
	c0-27.776,20.113-50.379,45.015-50.379l0,0c24.901,0,45.016,22.604,45.016,50.379V529.271z"/>
<path fill="#2D1A05" d="M239.448,87.159c0,0-9.961-25.668-4.789-32.948c5.363-7.279,17.432,4.406,20.688,9.578
	s-7.088-16.474,2.682-20.113c9.771-3.639,24.902,15.133,24.902,15.133s-0.957-21.837,9.195-21.837
	c9.959,0,21.261,15.516,20.112,20.114c-1.149,4.597,8.236-19.539,15.898-20.114c7.662-0.383,6.704,21.646,5.172,25.094
	c-1.531,3.448,10.152-16.474,22.029-14.175c11.876,2.298-3.64,26.243-3.64,26.243s14.94-21.263,20.305-15.325
	c5.172,5.938-10.152,29.308-10.152,29.308L239.448,87.159z"/>
<polygon fill="#34509A" points="254.58,534.442 344.42,534.442 351.508,707.992 317.41,707.992 299.404,579.649 280.823,707.992 
	246.535,707.992 "/>
<g>
	<path fill="#F9D2BF" d="M366.771,536.039c-1.301,0-2.37-5.274-2.401-11.916c-0.018-3.955,0.334-7.731,0.316-11.34
		c-0.268-54.39-1.652-75.01-1.988-96.213c-0.107-6.72,1.707-7.869,3.029-8.411c1.322-0.533,3.342,0.185,3.447,6.905
		c0.346,21.748-0.693,42.224-0.422,97.736c0.018,3.429,0.404,7.006,0.422,10.744c0.031,6.741-1.02,12.333-2.346,12.491
		C366.809,536.039,366.791,536.039,366.771,536.039z"/>
	<path fill="#F9D2BF" d="M367.827,424.625c-1.846,0.399-9.762-19.671-11.996-29.155c-2.135-9.067-4.02-16.083-5.186-21.618
		c-2.607-12.381-3.064-17.034-4.953-18.447c-2.432-1.818-8.098-20.945-9.797-30.927c-1.699-9.98-1.106-16.597,1.324-14.781
		c9.354,6.997,19.893,53.355,29.51,94.188c2.367,10.054,3.2,19.227,1.415,20.588C368.044,424.55,367.936,424.601,367.827,424.625z"
		/>
</g>
<g>
	<path fill="#F9D2BF" d="M232.261,536.039c1.301,0,2.37-5.274,2.401-11.916c0.019-3.955-0.333-7.731-0.315-11.34
		c0.267-54.39,1.651-75.01,1.988-96.213c0.106-6.72-1.707-7.869-3.03-8.411c-1.322-0.533-3.341,0.185-3.447,6.905
		c-0.346,21.748,0.693,42.224,0.421,97.736c-0.017,3.429-0.403,7.006-0.421,10.744c-0.031,6.741,1.019,12.333,2.345,12.491
		C232.223,536.039,232.242,536.039,232.261,536.039z"/>
	<path fill="#F9D2BF" d="M231.081,424.625c1.846,0.399,9.762-19.671,11.995-29.155c2.136-9.067,4.021-16.083,5.186-21.618
		c2.607-12.381,3.065-17.034,4.953-18.447c2.431-1.818,8.098-20.945,9.797-30.927c1.699-9.98,1.106-16.597-1.324-14.781
		c-9.354,6.997-19.893,53.355-29.51,94.188c-2.368,10.054-3.2,19.227-1.415,20.588C230.864,424.55,230.971,424.601,231.081,424.625z
		"/>
</g>
<path fill="#FFDC00" d="M343.777,527.812l0.238-137.294l-15.432-56.535c0-18.644,6.802-31.504-6.795-39.921l0.057,13.786
	c0,13.17-9.717,18.173-21.465,18.173h-0.437c-11.748,0-24.465-5.003-24.465-18.173l0.057-13.786
	c-13.596,8.417-6.795,21.277-6.795,39.921l-15.435,56.58l0.241,137.249H343.777z"/>
</svg>
