<?xml version="1.0" encoding="utf-8"?>
<!-- Generator: Adobe Illustrator 16.0.0, SVG Export Plug-In . SVG Version: 6.00 Build 0)  -->
<!DOCTYPE svg PUBLIC "-//W3C//DTD SVG 1.1//EN" "http://www.w3.org/Graphics/SVG/1.1/DTD/svg11.dtd">
<svg version="1.1" id="Ebene_1" xmlns="http://www.w3.org/2000/svg" xmlns:xlink="http://www.w3.org/1999/xlink" x="0px" y="0px"
	 width="595.279px" height="841.891px" viewBox="0 0 595.279 841.891" enable-background="new 0 0 595.279 841.891"
	 xml:space="preserve">
<g>
	<g>
		<path fill="#F9D2BF" d="M380.524,533.039c-5.438,0-9.906-5.274-10.037-11.916c-0.076-3.955,1.393-7.731,1.318-11.34
			c-1.115-54.39-6.902-75.01-8.311-96.214c-0.445-6.719,7.136-7.869,12.666-8.41c5.527-0.533,13.967,0.184,14.412,6.904
			c1.445,21.748-2.898,42.225-1.762,97.736c0.07,3.429,1.684,7.006,1.76,10.744c0.131,6.741-4.258,12.333-9.804,12.491
			C380.685,533.039,380.606,533.039,380.524,533.039z"/>
		<path fill="#F9D2BF" d="M376.405,423.69c-7.896,0-22.486-21.291-23.225-31.033c-0.707-9.312-2.201-16.568-2.068-22.225
			c0.299-12.652,2.545-17.297-3.922-19.077c-8.324-2.291-14.561-22.185-12.674-32.3c1.885-10.114,10.16-16.455,18.484-14.166
			c32.029,8.817,34.09,56.356,37.266,98.299c0.783,10.328-3.93,19.469-12.428,20.422C377.358,423.663,376.878,423.69,376.405,423.69
			z"/>
	</g>
	<g>
		<path fill="#F9D2BF" d="M222.331,530.894c5.438,0,9.906-5.274,10.035-11.915c0.078-3.957-1.393-7.732-1.318-11.34
			c1.117-54.391,6.906-75.011,8.312-96.214c0.445-6.721-7.135-7.869-12.666-8.412c-5.527-0.533-13.967,0.186-14.412,6.906
			c-1.445,21.747,2.898,42.224,1.762,97.735c-0.069,3.429-1.686,7.006-1.759,10.746c-0.134,6.737,4.257,12.331,9.804,12.489
			C222.169,530.894,222.249,530.894,222.331,530.894z"/>
		<path fill="#F9D2BF" d="M226.45,421.546c7.896,0,22.486-21.291,23.225-31.033c0.707-9.314,2.199-16.57,2.068-22.225
			c-0.299-12.653-2.545-17.298,3.922-19.078c8.324-2.292,14.561-22.185,12.674-32.3c-1.885-10.114-10.161-16.455-18.484-14.166
			c-32.031,8.817-34.088,56.356-37.266,98.298c-0.781,10.328,3.93,19.471,12.428,20.422
			C225.498,421.517,225.977,421.546,226.45,421.546z"/>
	</g>
	<g>
		
			<line fill="none" stroke="#FBD3C2" stroke-width="4" stroke-linecap="round" stroke-miterlimit="10" x1="265.1" y1="708.566" x2="265.1" y2="800.705"/>
		
			<line fill="none" stroke="#FBD3C2" stroke-width="4" stroke-linecap="round" stroke-miterlimit="10" x1="335.02" y1="707.992" x2="335.02" y2="800.131"/>
		<path fill="#FBD3C2" d="M368.925,164.547c0,89.457-15.898,126.619-64.361,126.619c-48.465,0-67.619-37.162-67.619-126.619
			s19.537-99.226,68.002-99.226C353.409,65.322,368.925,75.09,368.925,164.547z"/>
		<polygon fill="#E31F68" points="368.925,130.643 236.944,130.643 241.348,86.967 363.561,88.117 		"/>
		<circle cx="259.928" cy="160.524" r="6.321"/>
		<circle cx="347.087" cy="160.524" r="6.321"/>
		<line fill="none" stroke="#000000" stroke-miterlimit="10" x1="259.928" y1="219.523" x2="344.022" y2="219.523"/>
		<line fill="none" stroke="#000000" stroke-miterlimit="10" x1="290.196" y1="227.377" x2="313.948" y2="227.377"/>
		<path fill="#FBD3C2" d="M346.321,529.271c0,27.774-20.113,50.379-45.016,50.379l0,0c-24.902,0-45.016-22.604-45.016-50.379
			V337.714c0-27.776,20.113-50.379,45.016-50.379l0,0c24.902,0,45.016,22.604,45.016,50.379V529.271z"/>
		<path fill="#2D1A05" d="M241.348,87.159c0,0-9.961-25.668-4.789-32.948c5.363-7.279,17.432,4.406,20.688,9.578
			s-7.088-16.474,2.682-20.113c9.771-3.639,24.902,15.133,24.902,15.133s-0.957-21.837,9.195-21.837
			c9.961,0,21.262,15.516,20.113,20.114c-1.15,4.597,8.236-19.539,15.898-20.114c7.662-0.383,6.703,21.646,5.172,25.094
			c-1.531,3.448,10.152-16.474,22.029-14.175c11.875,2.298-3.641,26.243-3.641,26.243s14.941-21.263,20.305-15.325
			c5.172,5.938-10.152,29.308-10.152,29.308L241.348,87.159z"/>
		<polygon fill="#34509A" points="256.481,534.442 346.321,534.442 353.409,707.992 319.311,707.992 301.305,579.649 
			282.723,707.992 248.436,707.992 		"/>
	</g>
	<path fill="#FFDC00" d="M346.512,527.812l0.238-137.294l-15.432-56.535c0-18.644,6.801-31.504-6.795-39.921l0.057,13.786
		c0,13.17-9.718,18.173-21.465,18.173h-0.438c-11.748,0-24.465-5.003-24.465-18.173l0.057-13.786
		c-13.597,8.417-6.795,21.277-6.795,39.921l-15.436,56.58l0.242,137.249H346.512z"/>
</g>
</svg>
