<?xml version="1.0" encoding="utf-8"?>
<!-- Generator: Adobe Illustrator 16.0.0, SVG Export Plug-In . SVG Version: 6.00 Build 0)  -->
<!DOCTYPE svg PUBLIC "-//W3C//DTD SVG 1.1//EN" "http://www.w3.org/Graphics/SVG/1.1/DTD/svg11.dtd">
<svg version="1.1" id="Ebene_1" xmlns="http://www.w3.org/2000/svg" xmlns:xlink="http://www.w3.org/1999/xlink" x="0px" y="0px"
	 width="595.279px" height="841.891px" viewBox="0 0 595.279 841.891" enable-background="new 0 0 595.279 841.891"
	 xml:space="preserve">
<g>
	
		<line fill="none" stroke="#F9D2BF" stroke-width="4" stroke-linecap="round" stroke-miterlimit="10" x1="263.933" y1="709.416" x2="263.933" y2="801.574"/>
	
		<line fill="none" stroke="#F9D2BF" stroke-width="4" stroke-linecap="round" stroke-miterlimit="10" x1="334.083" y1="708.824" x2="334.083" y2="800.982"/>
	<path fill="none" stroke="#F9D2BF" stroke-width="4" stroke-linecap="round" stroke-miterlimit="10" d="M313.771,356.107
		c-4.475,28.129,57.918,95.566,55.753,64.564c-4.432-63.426-14.604-106.086-35.44-106.086"/>
	<path fill="none" stroke="#F9D2BF" stroke-width="4" stroke-linecap="round" stroke-miterlimit="10" d="M229.062,526
		c0-116.856,7.381-211.415,38.399-211.415"/>
	<path fill="#F9D2BF" d="M367.909,164.737c0,89.555-15.919,126.718-64.364,126.718c-48.449,0-67.671-37.163-67.671-126.718
		s19.589-99.248,68.039-99.248C352.358,65.489,367.909,75.182,367.909,164.737z"/>
	<polygon fill="#E31F68" points="367.909,130.787 235.874,130.787 240.304,87.078 362.605,88.194 	"/>
	<path fill="#F9D2BF" d="M345.334,529.825c0,27.873-20.156,50.469-45.025,50.469l0,0c-24.863,0-45.022-22.596-45.022-50.469V338.087
		c0-27.873,20.159-50.47,45.022-50.47l0,0c24.869,0,45.025,22.597,45.025,50.47V529.825z"/>
	<path fill="#FFDC00" d="M345.334,529.825V338.087c0-19.039-9.408-35.602-23.297-44.198v18.207c0,13.448-9.728,24.353-21.729,24.353
		c-11.998,0-21.724-10.904-21.724-24.353v-18.207c-13.885,8.597-23.298,25.159-23.298,44.198v191.738H345.334z"/>
	<path fill="#2B1B0D" d="M240.304,87.333c0,0-10.042-25.758-4.727-33.047c5.318-7.287,17.401,4.333,20.675,9.566
		c3.276,5.236-7.088-16.4,2.66-20.043c9.746-3.645,24.972,15.076,24.972,15.076s-1.045-21.912,8.997-21.912
		c10.043,0,21.267,15.492,20.085,20.046s8.269-19.591,15.95-20.046c7.683-0.455,6.791,21.659,5.17,25.181
		c-1.626,3.521,10.191-16.525,22.008-14.246c11.814,2.277-3.641,26.28-3.641,26.28s14.998-21.271,20.249-15.347
		c5.251,5.923-10.099,29.352-10.099,29.352L240.304,87.333z"/>
	<polygon fill="#34509A" points="255.287,535.141 345.334,535.141 352.454,708.824 318.284,708.824 300.309,580.294 
		281.656,708.824 247.391,708.824 	"/>
	<path fill="none" stroke="#D89E87" stroke-width="4" stroke-linecap="round" stroke-miterlimit="10" d="M314.771,356.107
		c-4.475,28.129,56.918,95.566,54.753,64.564"/>
	<path fill="none" stroke="#F9D2BF" stroke-width="4" stroke-linecap="round" stroke-miterlimit="10" d="M313.771,356.107
		c-4.475,28.129,57.918,95.566,55.753,64.564"/>
	<path fill="none" stroke="#1A171B" stroke-miterlimit="10" d="M278.719,264.375c0-27.396,71.076-44.043,43.269-2.812"/>
	<circle fill="#1A171B" cx="259.193" cy="162.027" r="6.349"/>
	<circle fill="#1A171B" cx="346.387" cy="162.027" r="6.349"/>
	<line fill="none" stroke="#1A171B" stroke-miterlimit="10" x1="250.702" y1="153.138" x2="271.812" y2="158.543"/>
	<line fill="none" stroke="#1A171B" stroke-miterlimit="10" x1="354.066" y1="153.138" x2="332.955" y2="158.543"/>
	<line fill="none" stroke="#1A171B" stroke-miterlimit="10" x1="271.812" y1="164.54" x2="250.698" y2="171.865"/>
	<line fill="none" stroke="#1A171B" stroke-miterlimit="10" x1="332.955" y1="164.54" x2="354.066" y2="171.865"/>
</g>
</svg>
