<?xml version="1.0" encoding="utf-8"?>
<!-- Generator: Adobe Illustrator 18.1.0, SVG Export Plug-In . SVG Version: 6.00 Build 0)  -->
<svg version="1.1" id="Ebene_1" xmlns="http://www.w3.org/2000/svg" xmlns:xlink="http://www.w3.org/1999/xlink" x="0px" y="0px"
	 viewBox="0 0 105 439.5" enable-background="new 0 0 105 439.5" xml:space="preserve">
<g>
	
		<line fill="none" stroke="#FBD3C2" stroke-width="4" stroke-linecap="round" stroke-miterlimit="10" x1="34.9" y1="369.9" x2="34.9" y2="418"/>
	
		<line fill="none" stroke="#FBD3C2" stroke-width="4" stroke-linecap="round" stroke-miterlimit="10" x1="71.4" y1="369.6" x2="71.4" y2="417.7"/>
	<path fill="none" stroke="#FBD3C2" stroke-width="4" stroke-linecap="round" stroke-miterlimit="10" d="M91.5,274.3
		c0-60.9-3.8-110.2-20-110.2"/>
	<path fill="none" stroke="#FBD3C2" stroke-width="4" stroke-linecap="round" stroke-miterlimit="10" d="M16.7,274.3
		c0-60.9,3.8-110.2,20-110.2"/>
	<path fill="#FBD3C2" d="M89.1,85.9c0,46.7-8.3,66.1-33.6,66.1c-25.3,0-35.3-19.4-35.3-66.1c0-46.7,10.2-51.8,35.5-51.8
		C81,34.1,89.1,39.2,89.1,85.9z"/>
	<polygon fill="#009AD0" points="89.1,68.2 20.2,68.2 22.5,45.4 86.3,46 	"/>
	<circle cx="32.2" cy="83.8" r="3.3"/>
	<circle cx="77.7" cy="83.8" r="3.3"/>
	<line fill="none" stroke="#000000" stroke-miterlimit="10" x1="32.2" y1="114.6" x2="76.1" y2="114.6"/>
	<line fill="none" stroke="#000000" stroke-miterlimit="10" x1="48" y1="118.7" x2="60.4" y2="118.7"/>
	<path fill="#FBD3C2" d="M77.3,276.3c0,14.5-10.5,26.3-23.5,26.3l0,0c-13,0-23.5-11.8-23.5-26.3v-100c0-14.5,10.5-26.3,23.5-26.3
		l0,0c13,0,23.5,11.8,23.5,26.3V276.3z"/>
	<path fill="#FFE220" d="M77.3,276.3v-100c0-9.9-4.9-18.6-12.1-23v9.5c0,7-5.1,12.7-11.3,12.7c-6.3,0-11.3-5.7-11.3-12.7v-9.5
		c-7.2,4.5-12.1,13.1-12.1,23v100H77.3z"/>
	<path fill="#2D1A05" d="M22.5,45.5c0,0-5.2-13.4-2.5-17.2c2.8-3.8,9.1,2.3,10.8,5c1.7,2.7-3.7-8.6,1.4-10.5c5.1-1.9,13,7.9,13,7.9
		S44.7,19.3,50,19.3c5.2,0,11.1,8.1,10.5,10.5c-0.6,2.4,4.3-10.2,8.3-10.5c4-0.2,3.5,11.3,2.7,13.1c-0.8,1.8,5.3-8.6,11.5-7.4
		c6.2,1.2-1.9,13.7-1.9,13.7s7.8-11.1,10.6-8c2.7,3.1-5.3,15.3-5.3,15.3L22.5,45.5z"/>
	<polygon fill="#3661AB" points="30.4,279 77.3,279 81,369.6 63.2,369.6 53.8,302.6 44.1,369.6 26.2,369.6 	"/>
</g>
</svg>
