<?xml version="1.0" encoding="utf-8"?>
<!-- Generator: Adobe Illustrator 16.0.0, SVG Export Plug-In . SVG Version: 6.00 Build 0)  -->
<!DOCTYPE svg PUBLIC "-//W3C//DTD SVG 1.1//EN" "http://www.w3.org/Graphics/SVG/1.1/DTD/svg11.dtd">
<svg version="1.1" id="Ebene_1" xmlns="http://www.w3.org/2000/svg" xmlns:xlink="http://www.w3.org/1999/xlink" x="0px" y="0px"
	 width="595.279px" height="841.891px" viewBox="0 0 595.279 841.891" enable-background="new 0 0 595.279 841.891"
	 xml:space="preserve">
<g>
	
		<line fill="none" stroke="#FBD3C2" stroke-width="4" stroke-linecap="round" stroke-miterlimit="10" x1="263.926" y1="708.566" x2="263.926" y2="800.705"/>
	
		<line fill="none" stroke="#FBD3C2" stroke-width="4" stroke-linecap="round" stroke-miterlimit="10" x1="333.844" y1="707.992" x2="333.844" y2="800.131"/>
	<path fill="none" stroke="#FBD3C2" stroke-width="4" stroke-linecap="round" stroke-miterlimit="10" d="M372.347,525.439
		c0-116.658-7.279-211.096-38.312-211.096"/>
	<path fill="none" stroke="#FBD3C2" stroke-width="4" stroke-linecap="round" stroke-miterlimit="10" d="M229.063,525.439
		c0-116.658,7.279-211.096,38.312-211.096"/>
	<path fill="#FBD3C2" d="M367.749,164.547c0,89.457-15.899,126.619-64.362,126.619c-48.464,0-67.619-37.162-67.619-126.619
		s19.538-99.226,68.002-99.226S367.749,75.09,367.749,164.547z"/>
	<polygon fill="#E31F68" points="367.749,130.642 235.768,130.642 240.173,86.967 362.386,88.116 	"/>
	<circle cx="258.754" cy="160.524" r="6.321"/>
	<circle cx="345.912" cy="160.524" r="6.321"/>
	<line fill="none" stroke="#000000" stroke-miterlimit="10" x1="258.754" y1="219.523" x2="342.847" y2="219.523"/>
	<line fill="none" stroke="#000000" stroke-miterlimit="10" x1="289.02" y1="227.377" x2="312.773" y2="227.377"/>
	<path fill="#FBD3C2" d="M345.146,529.271c0,27.775-20.113,50.379-45.016,50.379l0,0c-24.902,0-45.016-22.604-45.016-50.379V337.714
		c0-27.776,20.113-50.379,45.016-50.379l0,0c24.902,0,45.016,22.604,45.016,50.379V529.271z"/>
	<path fill="#FFDC00" d="M345.146,529.271V337.714c0-18.964-9.386-35.629-23.178-44.058v18.198c0,13.409-9.77,24.328-21.646,24.328
		c-12.067,0-21.646-10.918-21.646-24.328v-18.198c-13.792,8.62-23.179,25.094-23.179,44.058v191.557H345.146z"/>
	<path fill="#2D1A05" d="M240.173,87.158c0,0-9.961-25.668-4.789-32.948c5.364-7.279,17.432,4.406,20.688,9.578
		c3.256,5.172-7.088-16.474,2.682-20.113s24.902,15.133,24.902,15.133s-0.958-21.837,9.194-21.837
		c9.961,0,21.263,15.516,20.113,20.114c-1.149,4.597,8.237-19.539,15.899-20.114c7.662-0.383,6.704,21.646,5.172,25.094
		c-1.532,3.448,10.152-16.474,22.029-14.175c11.876,2.298-3.64,26.243-3.64,26.243s14.941-21.263,20.305-15.325
		c5.172,5.938-10.152,29.308-10.152,29.308L240.173,87.158z"/>
	<polygon fill="#34509A" points="255.306,534.442 345.146,534.442 352.234,707.992 318.136,707.992 300.13,579.649 281.549,707.992 
		247.261,707.992 	"/>
</g>
</svg>
