<?xml version="1.0" encoding="utf-8"?>
<!-- Generator: Adobe Illustrator 16.0.0, SVG Export Plug-In . SVG Version: 6.00 Build 0)  -->
<!DOCTYPE svg PUBLIC "-//W3C//DTD SVG 1.1//EN" "http://www.w3.org/Graphics/SVG/1.1/DTD/svg11.dtd">
<svg version="1.1" id="Ebene_1" xmlns="http://www.w3.org/2000/svg" xmlns:xlink="http://www.w3.org/1999/xlink" x="0px" y="0px"
	 width="595.279px" height="841.891px" viewBox="0 0 595.279 841.891" enable-background="new 0 0 595.279 841.891"
	 xml:space="preserve">
<path fill="#F9D2BF" d="M264.65,802.589c-8.297,0-7.512-8.727-7.512-17.023l-7.512-90.244c0-8.297,6.727-15.023,15.024-15.023
	s27.918,6.727,27.918,15.023l-20.406,90.244C272.161,793.862,272.947,802.589,264.65,802.589z"/>
<path fill="#F9D2BF" d="M337.48,802.008c-8.296,0-7.511-8.727-7.511-17.021l-20.314-90.245c0-8.295,19.529-15.021,27.825-15.021
	c8.298,0,15.023,6.727,15.023,15.021l-7.512,90.245C344.992,793.281,345.778,802.008,337.48,802.008z"/>
<path fill="none" stroke="#F9D2BF" stroke-width="4" stroke-linecap="round" stroke-miterlimit="10" d="M409.674,515.716
	c0-114.423-13.048-200.941-37.601-207.017"/>
<path fill="none" stroke="#F9D2BF" stroke-width="4" stroke-linecap="round" stroke-miterlimit="10" d="M194.12,515.716
	c0-114.423,7.227-207.017,37.602-207.017"/>
<g>
	<path fill="#F9D2BF" d="M409.669,527.923c-6.607,0-12.039-5.274-12.197-11.916c-0.094-3.955,1.692-7.731,1.603-11.34
		c-1.356-54.39-8.39-75.01-10.101-96.213c-0.542-6.72,8.673-7.869,15.393-8.411c6.717-0.533,16.974,0.185,17.514,6.905
		c1.756,21.748-3.521,42.224-2.141,97.736c0.086,3.429,2.047,7.006,2.138,10.744c0.159,6.741-5.174,12.333-11.913,12.491
		C409.864,527.923,409.767,527.923,409.669,527.923z"/>
	<path fill="#F9D2BF" d="M404.663,418.575c-9.596,0-27.326-21.291-28.223-31.033c-0.859-9.313-2.676-16.569-2.514-22.226
		c0.361-12.652,3.091-17.297-4.768-19.077c-10.115-2.291-17.691-22.185-15.4-32.3c2.291-10.114,12.348-16.455,22.463-14.166
		c38.924,8.817,41.425,56.356,45.285,98.3c0.951,10.327-4.774,19.469-15.103,20.421
		C405.821,418.546,405.237,418.575,404.663,418.575z"/>
</g>
<g>
	<path fill="#F9D2BF" d="M193.192,525.777c6.607,0,12.039-5.274,12.196-11.915c0.094-3.957-1.692-7.732-1.603-11.34
		c1.357-54.391,8.392-75.011,10.102-96.214c0.541-6.72-8.672-7.869-15.393-8.411c-6.717-0.533-16.973,0.185-17.515,6.905
		c-1.755,21.748,3.522,42.224,2.142,97.736c-0.085,3.429-2.049,7.006-2.138,10.746c-0.161,6.737,5.173,12.331,11.913,12.489
		C192.996,525.777,193.094,525.777,193.192,525.777z"/>
	<path fill="#F9D2BF" d="M198.198,416.429c9.596,0,27.326-21.291,28.224-31.033c0.858-9.313,2.674-16.569,2.513-22.225
		c-0.361-12.653-3.092-17.298,4.768-19.078c10.114-2.292,17.693-22.185,15.4-32.3c-2.291-10.114-12.348-16.455-22.464-14.166
		c-38.925,8.817-41.423,56.356-45.284,98.299c-0.95,10.328,4.773,19.47,15.102,20.422
		C197.041,416.401,197.623,416.429,198.198,416.429z"/>
</g>
<path fill="none" stroke="#F9D2BF" stroke-width="20" stroke-linecap="round" stroke-miterlimit="10" d="M229.226,318.088"/>
<path fill="none" stroke="#F9D2BF" stroke-width="20" stroke-linecap="round" stroke-miterlimit="10" d="M196.615,399.793"/>
<path fill="none" stroke="#F9D2BF" stroke-width="18" stroke-linecap="round" stroke-miterlimit="10" d="M229.844,318.088"/>
<path fill="none" stroke="#F9D2BF" stroke-width="18" stroke-linecap="round" stroke-miterlimit="10" d="M192.241,525.106"/>
<path fill="#F9D2BF" d="M367.636,161.964c0,87.694-15.586,124.084-63.025,124.084c-47.441,0-66.265-36.391-66.265-124.084
	c0-87.693,19.183-97.184,66.625-97.184C352.41,64.781,367.636,74.271,367.636,161.964z"/>
<polygon fill="#E31F68" points="367.636,128.721 238.346,128.721 242.684,85.919 362.443,87.014 "/>
<circle fill="#1A171B" cx="260.907" cy="158.06" r="6.219"/>
<circle fill="#1A171B" cx="346.287" cy="158.06" r="6.217"/>
<line fill="none" stroke="#1A171B" stroke-miterlimit="10" x1="260.907" y1="215.909" x2="343.34" y2="215.909"/>
<line fill="none" stroke="#1A171B" stroke-miterlimit="10" x1="290.409" y1="223.573" x2="313.837" y2="223.573"/>
<path fill="#F9D2BF" d="M345.534,519.466c0,27.29-19.74,49.419-44.09,49.419l0,0c-24.347,0-44.085-22.129-44.085-49.419
	L229.19,312.932c0-27.292,47.907-30.641,72.254-30.641l0,0c24.35,0,72.258,3.349,72.258,30.641L345.534,519.466z"/>
<path fill="#2B1B0D" d="M242.684,86.17c0,0-9.833-25.223-4.627-32.36c5.207-7.137,17.041,4.242,20.248,9.367
	c3.206,5.126-6.942-16.06,2.603-19.627c9.544-3.569,24.451,14.763,24.451,14.763s-1.022-21.456,8.812-21.456
	c9.833,0,20.823,15.168,19.666,19.628c-1.155,4.461,8.099-19.182,15.62-19.628c7.521-0.446,6.649,21.208,5.061,24.657
	c-1.591,3.447,9.981-16.181,21.552-13.949c11.567,2.229-3.563,25.734-3.563,25.734s14.684-20.829,19.825-15.028
	c5.143,5.8-9.888,28.743-9.888,28.743L242.684,86.17z"/>
<polygon fill="#34509A" points="257.359,524.67 345.534,524.67 352.504,694.741 309.655,694.741 301.065,600.99 292.568,694.741 
	249.626,694.741 "/>
<path fill="#FFDC00" d="M352.341,474.093V326.199c0-18.642,4.6-31.281-9.001-39.7v16.069c0,13.17-28.957,22.337-40.708,22.337
	c-11.748,0-41.724-11.045-41.724-24.215l-2.943-13.786c-13.596,8.417-6.795,21.277-6.795,39.921v147.268H352.341z"/>
<path fill="#F9D2BF" d="M-519.35,802.589c-8.297,0-7.512-8.727-7.512-17.023l-7.512-90.244c0-8.297,6.727-15.023,15.024-15.023
	s27.918,6.727,27.918,15.023l-20.406,90.244C-511.839,793.862-511.053,802.589-519.35,802.589z"/>
<path fill="#F9D2BF" d="M-446.52,802.008c-8.296,0-7.511-8.727-7.511-17.021l-20.314-90.245c0-8.295,19.529-15.021,27.825-15.021
	c8.298,0,15.023,6.727,15.023,15.021l-7.512,90.245C-439.008,793.281-438.222,802.008-446.52,802.008z"/>
<g>
	<path fill="#F9D2BF" d="M-407.9,527.923c-1.301,0-2.37-5.274-2.401-11.916c-0.019-3.955,0.333-7.731,0.315-11.34
		c-0.267-54.39-1.651-75.01-1.988-96.213c-0.106-6.72,1.707-7.869,3.03-8.411c1.322-0.533,3.341,0.185,3.447,6.905
		c0.346,21.748-0.693,42.224-0.421,97.736c0.017,3.429,0.403,7.006,0.421,10.744c0.031,6.741-1.019,12.333-2.345,12.491
		C-407.862,527.923-407.881,527.923-407.9,527.923z"/>
	<path fill="#F9D2BF" d="M-408.885,418.575c-1.889,0-5.379-21.291-5.555-31.033c-0.169-9.313-0.527-16.569-0.495-22.226
		c0.071-12.652,0.608-17.297-0.938-19.077c-1.991-2.291-3.482-22.185-3.031-32.3c0.451-10.114,2.43-16.455,4.421-14.166
		c7.662,8.817,8.154,56.356,8.914,98.3c0.187,10.327-0.94,19.469-2.973,20.421C-408.657,418.546-408.773,418.575-408.885,418.575z"
		/>
</g>
<g>
	<path fill="#F9D2BF" d="M-557.844,527.923c1.301,0,2.37-5.274,2.401-11.916c0.019-3.955-0.333-7.731-0.315-11.34
		c0.267-54.39,1.651-75.01,1.988-96.213c0.106-6.72-1.707-7.869-3.03-8.411c-1.322-0.533-3.341,0.185-3.447,6.905
		c-0.346,21.748,0.693,42.224,0.421,97.736c-0.017,3.429-0.403,7.006-0.421,10.744c-0.031,6.741,1.019,12.333,2.345,12.491
		C-557.883,527.923-557.864,527.923-557.844,527.923z"/>
	<path fill="#F9D2BF" d="M-556.859,418.575c1.889,0,5.379-21.291,5.555-31.033c0.169-9.313,0.527-16.569,0.495-22.226
		c-0.071-12.652-0.608-17.297,0.938-19.077c1.991-2.291,3.482-22.185,3.031-32.3c-0.451-10.114-2.43-16.455-4.421-14.166
		c-7.662,8.817-8.154,56.356-8.914,98.3c-0.187,10.327,0.94,19.469,2.973,20.421C-557.087,418.546-556.972,418.575-556.859,418.575z
		"/>
</g>
<path fill="none" stroke="#F9D2BF" stroke-width="20" stroke-linecap="round" stroke-miterlimit="10" d="M-554.774,318.088"/>
<path fill="none" stroke="#F9D2BF" stroke-width="20" stroke-linecap="round" stroke-miterlimit="10" d="M-587.385,399.793"/>
<path fill="none" stroke="#F9D2BF" stroke-width="18" stroke-linecap="round" stroke-miterlimit="10" d="M-554.156,318.088"/>
<path fill="none" stroke="#F9D2BF" stroke-width="18" stroke-linecap="round" stroke-miterlimit="10" d="M-591.759,525.106"/>
<path fill="#F9D2BF" d="M-416.364,161.964c0,87.694-15.586,124.084-63.025,124.084c-47.441,0-66.265-36.391-66.265-124.084
	c0-87.693,19.183-97.184,66.625-97.184C-431.59,64.781-416.364,74.271-416.364,161.964z"/>
<polygon fill="#E31F68" points="-416.364,128.721 -545.654,128.721 -541.316,85.919 -421.557,87.014 "/>
<circle fill="#1A171B" cx="-523.093" cy="158.06" r="6.219"/>
<circle fill="#1A171B" cx="-437.713" cy="158.06" r="6.217"/>
<line fill="none" stroke="#1A171B" stroke-miterlimit="10" x1="-523.093" y1="215.909" x2="-440.66" y2="215.909"/>
<line fill="none" stroke="#1A171B" stroke-miterlimit="10" x1="-493.591" y1="223.573" x2="-470.163" y2="223.573"/>
<path fill="#F9D2BF" d="M-438.466,519.466c0,27.29-19.74,49.419-44.09,49.419l0,0c-24.347,0-44.085-22.129-44.085-49.419
	l-28.168-206.534c0-27.292,47.907-30.641,72.254-30.641l0,0c24.35,0,72.258,3.349,72.258,30.641L-438.466,519.466z"/>
<path fill="#F9D2BF" d="M-438.467,519.466c0,27.29-19.74,49.419-44.09,49.419l0,0c-24.347,0-44.085-22.129-44.085-49.419
	l-28.168-206.534c0-27.292,47.907-30.641,72.254-30.641l0,0c24.35,0,72.258,3.349,72.258,30.641L-438.467,519.466z"/>
<path fill="#2B1B0D" d="M-541.316,86.17c0,0-9.833-25.223-4.627-32.36c5.207-7.137,17.041,4.242,20.248,9.367
	c3.206,5.126-6.942-16.06,2.603-19.627c9.544-3.569,24.451,14.763,24.451,14.763s-1.022-21.456,8.812-21.456
	c9.833,0,20.823,15.168,19.666,19.628c-1.155,4.461,8.099-19.182,15.62-19.628c7.521-0.446,6.649,21.208,5.061,24.657
	c-1.591,3.447,9.981-16.181,21.552-13.949c11.567,2.229-3.563,25.734-3.563,25.734s14.684-20.829,19.825-15.028
	c5.143,5.8-9.888,28.743-9.888,28.743L-541.316,86.17z"/>
<polygon fill="#34509A" points="-526.641,524.67 -438.466,524.67 -431.496,694.741 -474.345,694.741 -482.935,600.99 
	-491.432,694.741 -534.374,694.741 "/>
<g>
	<path fill="#F9D2BF" d="M-1925.049,527.923c-6.607,0-12.039-5.274-12.197-11.916c-0.094-3.955,1.692-7.731,1.603-11.34
		c-1.356-54.39-8.39-75.01-10.101-96.213c-0.542-6.72,8.673-7.869,15.393-8.411c6.717-0.533,16.974,0.185,17.514,6.905
		c1.756,21.748-3.521,42.224-2.141,97.736c0.086,3.429,2.047,7.006,2.138,10.744c0.159,6.741-5.174,12.333-11.913,12.491
		C-1924.854,527.923-1924.95,527.923-1925.049,527.923z"/>
	<path fill="#F9D2BF" d="M-1930.055,418.574c-9.596,0-27.326-21.291-28.223-31.033c-0.859-9.313-2.676-16.569-2.514-22.226
		c0.361-12.652,3.091-17.297-4.768-19.077c-10.115-2.291-17.691-22.185-15.4-32.3c2.291-10.114,12.348-16.455,22.463-14.166
		c38.924,8.817,41.425,56.356,45.285,98.3c0.951,10.327-4.774,19.468-15.103,20.421
		C-1928.897,418.547-1929.481,418.574-1930.055,418.574z"/>
</g>
<g>
	<path fill="#F9D2BF" d="M-2093.192,525.777c6.607,0,12.039-5.274,12.196-11.915c0.094-3.957-1.692-7.732-1.603-11.34
		c1.357-54.391,8.392-75.011,10.102-96.214c0.541-6.72-8.672-7.869-15.393-8.411c-6.717-0.533-16.973,0.185-17.515,6.905
		c-1.755,21.748,3.522,42.224,2.142,97.736c-0.085,3.429-2.049,7.006-2.138,10.746c-0.161,6.737,5.173,12.331,11.913,12.489
		C-2093.388,525.777-2093.291,525.777-2093.192,525.777z"/>
	<path fill="#F9D2BF" d="M-2088.186,416.429c9.596,0,27.326-21.291,28.224-31.033c0.858-9.313,2.674-16.569,2.513-22.225
		c-0.361-12.653-3.092-17.298,4.768-19.078c10.114-2.292,17.693-22.185,15.4-32.3c-2.291-10.114-12.348-16.455-22.464-14.166
		c-38.925,8.817-41.423,56.356-45.284,98.299c-0.95,10.328,4.773,19.47,15.102,20.422
		C-2089.344,416.401-2088.761,416.429-2088.186,416.429z"/>
</g>
<g>
	
		<line fill="none" stroke="#FBD3C2" stroke-width="4" stroke-linecap="round" stroke-miterlimit="10" x1="-2045.447" y1="708.45" x2="-2045.447" y2="800.589"/>
	
		<line fill="none" stroke="#FBD3C2" stroke-width="4" stroke-linecap="round" stroke-miterlimit="10" x1="-1975.528" y1="707.876" x2="-1975.528" y2="800.015"/>
	<path fill="#FBD3C2" d="M-1941.623,164.431c0,89.457-15.898,126.619-64.361,126.619c-48.464,0-67.618-37.162-67.618-126.619
		s19.537-99.226,68.001-99.226S-1941.623,74.974-1941.623,164.431z"/>
	<polygon fill="#E31F68" points="-1941.623,130.526 -2073.603,130.526 -2069.198,86.851 -1946.986,88 	"/>
	<circle cx="-2050.618" cy="160.408" r="6.321"/>
	<circle cx="-1963.46" cy="160.408" r="6.321"/>
	<line fill="none" stroke="#000000" stroke-miterlimit="10" x1="-2050.618" y1="219.407" x2="-1966.525" y2="219.407"/>
	<line fill="none" stroke="#000000" stroke-miterlimit="10" x1="-2020.351" y1="227.261" x2="-1996.599" y2="227.261"/>
	<path fill="#FBD3C2" d="M-1964.226,529.155c0,27.774-20.113,50.379-45.016,50.379l0,0c-24.902,0-45.016-22.604-45.016-50.379
		V337.598c0-27.776,20.113-50.379,45.016-50.379l0,0c24.901,0,45.016,22.604,45.016,50.379V529.155z"/>
	<path fill="#2D1A05" d="M-2069.198,87.042c0,0-9.961-25.668-4.789-32.948c5.363-7.279,17.432,4.406,20.688,9.578
		s-7.088-16.474,2.682-20.113c9.771-3.639,24.902,15.133,24.902,15.133s-0.957-21.837,9.195-21.837
		c9.96,0,21.262,15.516,20.112,20.114c-1.149,4.597,8.236-19.539,15.898-20.114c7.662-0.383,6.704,21.646,5.172,25.094
		c-1.531,3.448,10.152-16.474,22.029-14.175c11.876,2.298-3.64,26.243-3.64,26.243s14.94-21.263,20.305-15.325
		c5.172,5.938-10.152,29.308-10.152,29.308L-2069.198,87.042z"/>
	<polygon fill="#34509A" points="-2054.066,534.326 -1964.226,534.326 -1957.138,707.876 -1991.236,707.876 -2009.241,579.533 
		-2027.823,707.876 -2062.111,707.876 	"/>
</g>
<path fill="#FFDC00" d="M-1964.035,527.695l0.238-137.294l-15.431-56.535c0-18.644,6.801-31.504-6.795-39.921l0.057,13.786
	c0,13.17-9.718,18.173-21.465,18.173h-0.437c-11.748,0-24.465-5.003-24.465-18.173l0.057-13.786
	c-13.596,8.417-6.795,21.277-6.795,39.921l-15.435,56.58l0.241,137.249H-1964.035z"/>
<g>
	<g>
		<path fill="#F9D2BF" d="M-2352.503,532.923c-5.438,0-9.907-5.274-10.037-11.916c-0.077-3.955,1.393-7.731,1.318-11.34
			c-1.116-54.39-6.903-75.01-8.312-96.213c-0.445-6.72,7.136-7.869,12.666-8.411c5.527-0.533,13.968,0.185,14.412,6.905
			c1.445,21.748-2.897,42.224-1.761,97.736c0.071,3.429,1.684,7.006,1.759,10.744c0.131,6.741-4.258,12.333-9.803,12.491
			C-2352.342,532.923-2352.422,532.923-2352.503,532.923z"/>
		<path fill="#F9D2BF" d="M-2356.622,423.574c-7.896,0-22.486-21.291-23.225-31.033c-0.707-9.313-2.201-16.569-2.068-22.226
			c0.298-12.652,2.544-17.297-3.923-19.077c-8.324-2.291-14.56-22.185-12.673-32.3c1.884-10.114,10.16-16.455,18.484-14.166
			c32.029,8.817,34.089,56.356,37.265,98.3c0.783,10.327-3.929,19.468-12.428,20.421
			C-2355.669,423.547-2356.15,423.574-2356.622,423.574z"/>
	</g>
	<g>
		<path fill="#F9D2BF" d="M-2510.697,530.777c5.438,0,9.907-5.274,10.036-11.915c0.077-3.957-1.393-7.732-1.318-11.34
			c1.117-54.391,6.905-75.011,8.312-96.214c0.444-6.72-7.136-7.869-12.666-8.411c-5.527-0.533-13.967,0.185-14.413,6.905
			c-1.445,21.748,2.898,42.224,1.762,97.736c-0.07,3.429-1.686,7.006-1.759,10.746c-0.133,6.737,4.256,12.331,9.803,12.489
			C-2510.858,530.777-2510.778,530.777-2510.697,530.777z"/>
		<path fill="#F9D2BF" d="M-2506.578,421.429c7.896,0,22.487-21.291,23.226-31.033c0.707-9.313,2.199-16.569,2.067-22.225
			c-0.298-12.653-2.544-17.298,3.923-19.078c8.323-2.292,14.56-22.185,12.673-32.3c-1.885-10.114-10.161-16.455-18.484-14.166
			c-32.031,8.817-34.087,56.356-37.265,98.299c-0.782,10.328,3.929,19.47,12.427,20.422
			C-2507.53,421.401-2507.051,421.429-2506.578,421.429z"/>
	</g>
	<g>
		
			<line fill="none" stroke="#FBD3C2" stroke-width="4" stroke-linecap="round" stroke-miterlimit="10" x1="-2467.927" y1="708.45" x2="-2467.927" y2="800.589"/>
		
			<line fill="none" stroke="#FBD3C2" stroke-width="4" stroke-linecap="round" stroke-miterlimit="10" x1="-2398.008" y1="707.876" x2="-2398.008" y2="800.015"/>
		<path fill="#FBD3C2" d="M-2364.103,164.431c0,89.457-15.898,126.619-64.361,126.619c-48.464,0-67.618-37.162-67.618-126.619
			s19.537-99.226,68.001-99.226S-2364.103,74.974-2364.103,164.431z"/>
		<polygon fill="#E31F68" points="-2364.103,130.526 -2496.083,130.526 -2491.678,86.851 -2369.466,88 		"/>
		<circle cx="-2473.098" cy="160.408" r="6.321"/>
		<circle cx="-2385.94" cy="160.408" r="6.321"/>
		<line fill="none" stroke="#000000" stroke-miterlimit="10" x1="-2473.098" y1="219.407" x2="-2389.005" y2="219.407"/>
		<line fill="none" stroke="#000000" stroke-miterlimit="10" x1="-2442.831" y1="227.261" x2="-2419.079" y2="227.261"/>
		<path fill="#FBD3C2" d="M-2386.706,529.155c0,27.774-20.113,50.379-45.016,50.379l0,0c-24.902,0-45.016-22.604-45.016-50.379
			V337.598c0-27.776,20.113-50.379,45.016-50.379l0,0c24.901,0,45.016,22.604,45.016,50.379V529.155z"/>
		<path fill="#2D1A05" d="M-2491.678,87.042c0,0-9.961-25.668-4.789-32.948c5.363-7.279,17.432,4.406,20.688,9.578
			s-7.088-16.474,2.682-20.113c9.771-3.639,24.902,15.133,24.902,15.133s-0.957-21.837,9.195-21.837
			c9.96,0,21.262,15.516,20.112,20.114c-1.149,4.597,8.236-19.539,15.898-20.114c7.662-0.383,6.704,21.646,5.172,25.094
			c-1.531,3.448,10.152-16.474,22.029-14.175c11.876,2.298-3.64,26.243-3.64,26.243s14.94-21.263,20.305-15.325
			c5.172,5.938-10.152,29.308-10.152,29.308L-2491.678,87.042z"/>
		<polygon fill="#34509A" points="-2476.546,534.326 -2386.706,534.326 -2379.618,707.876 -2413.716,707.876 -2431.721,579.533 
			-2450.303,707.876 -2484.591,707.876 		"/>
	</g>
	<path fill="#FFDC00" d="M-2386.515,527.695l0.238-137.294l-15.431-56.535c0-18.644,6.801-31.504-6.795-39.921l0.057,13.786
		c0,13.17-9.718,18.173-21.465,18.173h-0.437c-11.748,0-24.465-5.003-24.465-18.173l0.057-13.786
		c-13.596,8.417-6.795,21.277-6.795,39.921l-15.435,56.58l0.241,137.249H-2386.515z"/>
</g>
<g>
	<g>
		<path fill="#F9D2BF" d="M-2859.521,533.965c-4.072-0.22-7.136-5.667-6.874-12.305c0.155-3.952,1.461-7.663,1.6-11.27
			c2.098-54.355-1.124-75.18-1.034-96.41c0.029-6.728,5.77-7.569,9.939-7.886c4.168-0.309,10.451,0.75,10.421,7.478
			c-0.091,21.775-4.448,42.045-6.591,97.522c-0.132,3.427,0.882,7.064,0.738,10.8c-0.267,6.737-3.854,12.144-8.016,12.076
			C-2859.4,533.972-2859.459,533.969-2859.521,533.965z"/>
		<path fill="#F9D2BF" d="M-2854.006,423.426c-5.9,0.515-18.653-19.743-20.053-29.4c-1.337-9.232-3.084-16.363-3.478-22.007
			c-0.877-12.624,0.397-17.397-4.589-18.749c-6.42-1.74-12.81-21.151-12.278-31.351c0.526-10.199,6.16-17.055,12.578-15.318
			c24.698,6.694,30.372,53.919,36.393,95.496c1.482,10.237-1.242,19.651-7.51,21.155
			C-2853.296,423.336-2853.653,423.395-2854.006,423.426z"/>
	</g>
	<g>
		<path fill="#F9D2BF" d="M-2985.827,533.84c4.072-0.22,7.136-5.667,6.874-12.305c-0.155-3.952-1.461-7.663-1.6-11.27
			c-2.098-54.355,1.124-75.18,1.034-96.41c-0.029-6.728-5.77-7.569-9.939-7.886c-4.168-0.309-10.451,0.75-10.421,7.478
			c0.091,21.775,4.448,42.045,6.591,97.522c0.132,3.427-0.882,7.064-0.738,10.8c0.267,6.737,3.854,12.144,8.016,12.076
			C-2985.948,533.847-2985.889,533.844-2985.827,533.84z"/>
		<path fill="#F9D2BF" d="M-2991.342,423.301c5.9,0.515,18.653-19.743,20.053-29.4c1.337-9.232,3.084-16.363,3.478-22.007
			c0.877-12.624-0.397-17.397,4.589-18.749c6.42-1.74,12.81-21.151,12.278-31.351c-0.526-10.199-6.16-17.055-12.578-15.318
			c-24.698,6.694-30.372,53.919-36.393,95.496c-1.482,10.237,1.242,19.651,7.51,21.155
			C-2992.052,423.211-2991.696,423.27-2991.342,423.301z"/>
	</g>
	<g>
		
			<line fill="none" stroke="#FBD3C2" stroke-width="4" stroke-linecap="round" stroke-miterlimit="10" x1="-2958.902" y1="708.45" x2="-2958.902" y2="800.589"/>
		
			<line fill="none" stroke="#FBD3C2" stroke-width="4" stroke-linecap="round" stroke-miterlimit="10" x1="-2888.983" y1="707.876" x2="-2888.983" y2="800.015"/>
		<path fill="#FBD3C2" d="M-2855.078,164.431c0,89.457-15.898,126.619-64.361,126.619c-48.464,0-67.618-37.162-67.618-126.619
			s19.537-99.226,68.001-99.226S-2855.078,74.974-2855.078,164.431z"/>
		<polygon fill="#E31F68" points="-2855.078,130.526 -2987.058,130.526 -2982.654,86.851 -2860.441,88 		"/>
		<circle cx="-2964.073" cy="160.408" r="6.321"/>
		<circle cx="-2876.915" cy="160.408" r="6.321"/>
		<line fill="none" stroke="#000000" stroke-miterlimit="10" x1="-2964.073" y1="219.407" x2="-2879.98" y2="219.407"/>
		<line fill="none" stroke="#000000" stroke-miterlimit="10" x1="-2933.806" y1="227.261" x2="-2910.054" y2="227.261"/>
		<path fill="#FBD3C2" d="M-2877.681,529.155c0,27.774-20.113,50.379-45.016,50.379l0,0c-24.902,0-45.016-22.604-45.016-50.379
			V337.598c0-27.776,20.113-50.379,45.016-50.379l0,0c24.901,0,45.016,22.604,45.016,50.379V529.155z"/>
		<path fill="#2D1A05" d="M-2982.654,87.042c0,0-9.961-25.668-4.789-32.948c5.363-7.279,17.432,4.406,20.688,9.578
			s-7.088-16.474,2.682-20.113c9.771-3.639,24.902,15.133,24.902,15.133s-0.957-21.837,9.195-21.837
			c9.96,0,21.262,15.516,20.112,20.114c-1.149,4.597,8.236-19.539,15.898-20.114c7.662-0.383,6.704,21.646,5.172,25.094
			c-1.531,3.448,10.152-16.474,22.029-14.175c11.876,2.298-3.64,26.243-3.64,26.243s14.94-21.263,20.305-15.325
			c5.172,5.938-10.152,29.308-10.152,29.308L-2982.654,87.042z"/>
		<polygon fill="#34509A" points="-2967.521,534.326 -2877.681,534.326 -2870.593,707.876 -2904.691,707.876 -2922.697,579.533 
			-2941.279,707.876 -2975.566,707.876 		"/>
	</g>
	<path fill="#FFDC00" d="M-2877.49,527.695l0.238-137.294l-15.431-56.535c0-18.644,6.801-31.504-6.795-39.921l0.057,13.786
		c0,13.17-9.718,18.173-21.465,18.173h-0.437c-11.748,0-24.465-5.003-24.465-18.173l0.057-13.786
		c-13.596,8.417-6.795,21.277-6.795,39.921l-15.435,56.58l0.241,137.249H-2877.49z"/>
</g>
<g>
	<g>
		
			<line fill="none" stroke="#FBD3C2" stroke-width="4" stroke-linecap="round" stroke-miterlimit="10" x1="-3459.447" y1="708.45" x2="-3459.447" y2="800.589"/>
		
			<line fill="none" stroke="#FBD3C2" stroke-width="4" stroke-linecap="round" stroke-miterlimit="10" x1="-3389.528" y1="707.876" x2="-3389.528" y2="800.015"/>
		<path fill="#FBD3C2" d="M-3355.623,164.431c0,89.457-15.898,126.619-64.361,126.619c-48.464,0-67.618-37.162-67.618-126.619
			s19.537-99.226,68.001-99.226S-3355.623,74.974-3355.623,164.431z"/>
		<polygon fill="#E31F68" points="-3355.623,130.526 -3487.603,130.526 -3483.198,86.851 -3360.986,88 		"/>
		<circle cx="-3464.618" cy="160.408" r="6.321"/>
		<circle cx="-3377.46" cy="160.408" r="6.321"/>
		<line fill="none" stroke="#000000" stroke-miterlimit="10" x1="-3464.618" y1="219.407" x2="-3380.525" y2="219.407"/>
		<line fill="none" stroke="#000000" stroke-miterlimit="10" x1="-3434.351" y1="227.261" x2="-3410.599" y2="227.261"/>
		<path fill="#FBD3C2" d="M-3378.226,529.155c0,27.774-20.113,50.379-45.016,50.379l0,0c-24.902,0-45.016-22.604-45.016-50.379
			V337.598c0-27.776,20.113-50.379,45.016-50.379l0,0c24.901,0,45.016,22.604,45.016,50.379V529.155z"/>
		<path fill="#2D1A05" d="M-3483.198,87.042c0,0-9.961-25.668-4.789-32.948c5.363-7.279,17.432,4.406,20.688,9.578
			s-7.088-16.474,2.682-20.113c9.771-3.639,24.902,15.133,24.902,15.133s-0.957-21.837,9.195-21.837
			c9.96,0,21.262,15.516,20.112,20.114c-1.149,4.597,8.236-19.539,15.898-20.114c7.662-0.383,6.704,21.646,5.172,25.094
			c-1.531,3.448,10.152-16.474,22.029-14.175c11.876,2.298-3.64,26.243-3.64,26.243s14.94-21.263,20.305-15.325
			c5.172,5.938-10.152,29.308-10.152,29.308L-3483.198,87.042z"/>
		<polygon fill="#34509A" points="-3468.066,534.326 -3378.226,534.326 -3371.138,707.876 -3405.236,707.876 -3423.241,579.533 
			-3441.823,707.876 -3476.111,707.876 		"/>
	</g>
	<g>
		<path fill="#F9D2BF" d="M-3354.832,535.923c-1.301,0-2.37-5.274-2.401-11.916c-0.019-3.955,0.333-7.731,0.315-11.34
			c-0.267-54.39-1.651-75.01-1.988-96.213c-0.106-6.72,1.707-7.869,3.03-8.411c1.322-0.533,3.341,0.185,3.447,6.905
			c0.346,21.748-0.693,42.224-0.421,97.736c0.017,3.429,0.403,7.006,0.421,10.744c0.031,6.741-1.019,12.333-2.345,12.491
			C-3354.794,535.923-3354.813,535.923-3354.832,535.923z"/>
		<path fill="#F9D2BF" d="M-3353.777,424.509c-1.846,0.399-9.762-19.671-11.995-29.155c-2.136-9.067-4.021-16.083-5.186-21.618
			c-2.607-12.381-3.065-17.034-4.953-18.447c-2.431-1.818-8.098-20.945-9.797-30.927c-1.699-9.98-1.106-16.597,1.324-14.781
			c9.354,6.997,19.893,53.355,29.51,94.188c2.368,10.054,3.2,19.227,1.415,20.588
			C-3353.56,424.434-3353.667,424.484-3353.777,424.509z"/>
	</g>
	<g>
		<path fill="#F9D2BF" d="M-3490.385,535.923c1.301,0,2.37-5.274,2.401-11.916c0.019-3.955-0.333-7.731-0.315-11.34
			c0.267-54.39,1.651-75.01,1.988-96.213c0.106-6.72-1.707-7.869-3.03-8.411c-1.322-0.533-3.341,0.185-3.447,6.905
			c-0.346,21.748,0.693,42.224,0.421,97.736c-0.017,3.429-0.403,7.006-0.421,10.744c-0.031,6.741,1.019,12.333,2.345,12.491
			C-3490.423,535.923-3490.404,535.923-3490.385,535.923z"/>
		<path fill="#F9D2BF" d="M-3491.565,424.509c1.846,0.399,9.762-19.671,11.995-29.155c2.136-9.067,4.021-16.083,5.186-21.618
			c2.607-12.381,3.065-17.034,4.953-18.447c2.431-1.818,8.098-20.945,9.797-30.927c1.699-9.98,1.106-16.597-1.324-14.781
			c-9.354,6.997-19.893,53.355-29.51,94.188c-2.368,10.054-3.2,19.227-1.415,20.588
			C-3491.782,424.434-3491.675,424.484-3491.565,424.509z"/>
	</g>
	<path fill="#FFDC00" d="M-3378.868,527.695l0.238-137.294l-15.431-56.535c0-18.644,6.801-31.504-6.795-39.921l0.057,13.786
		c0,13.17-9.718,18.173-21.465,18.173h-0.437c-11.748,0-24.465-5.003-24.465-18.173l0.057-13.786
		c-13.596,8.417-6.795,21.277-6.795,39.921l-15.435,56.58l0.241,137.249H-3378.868z"/>
</g>
</svg>
