<?xml version="1.0" encoding="utf-8"?>
<!-- Generator: Adobe Illustrator 16.0.0, SVG Export Plug-In . SVG Version: 6.00 Build 0)  -->
<!DOCTYPE svg PUBLIC "-//W3C//DTD SVG 1.1//EN" "http://www.w3.org/Graphics/SVG/1.1/DTD/svg11.dtd">
<svg version="1.1" id="Ebene_1" xmlns="http://www.w3.org/2000/svg" xmlns:xlink="http://www.w3.org/1999/xlink" x="0px" y="0px"
	 width="595.279px" height="45.496px" viewBox="0 602.811 595.279 45.496" enable-background="new 0 602.811 595.279 45.496"
	 xml:space="preserve">
<g>
	<circle fill="#4BD1DB" cx="271.973" cy="625.288" r="17.5"/>
	<path opacity="0.4" fill="#4BD1DB" enable-background="new    " d="M271.973,647.788c-12.407,0-22.5-10.095-22.5-22.5
		c0-12.407,10.093-22.5,22.5-22.5c12.406,0,22.5,10.093,22.5,22.5C294.473,637.694,284.38,647.788,271.973,647.788z
		 M271.973,604.788c-11.305,0-20.5,9.194-20.5,20.5c0,11.303,9.195,20.5,20.5,20.5c11.304,0,20.5-9.197,20.5-20.5
		C292.473,613.983,283.277,604.788,271.973,604.788z"/>
</g>
<g>
	<circle fill="#4BD1DB" cx="328.139" cy="625.288" r="17.5"/>
	<path opacity="0.4" fill="#4BD1DB" enable-background="new    " d="M328.139,647.788c-12.406,0-22.5-10.095-22.5-22.5
		c0-12.407,10.094-22.5,22.5-22.5s22.5,10.093,22.5,22.5C350.639,637.694,340.547,647.788,328.139,647.788z M328.139,604.788
		c-11.304,0-20.5,9.194-20.5,20.5c0,11.303,9.196,20.5,20.5,20.5s20.5-9.197,20.5-20.5
		C348.639,613.983,339.443,604.788,328.139,604.788z"/>
</g>
</svg>
