<?xml version="1.0" encoding="utf-8"?>
<!-- Generator: Adobe Illustrator 16.0.0, SVG Export Plug-In . SVG Version: 6.00 Build 0)  -->
<!DOCTYPE svg PUBLIC "-//W3C//DTD SVG 1.1//EN" "http://www.w3.org/Graphics/SVG/1.1/DTD/svg11.dtd">
<svg version="1.1" id="Ebene_1" xmlns="http://www.w3.org/2000/svg" xmlns:xlink="http://www.w3.org/1999/xlink" x="0px" y="0px"
	 width="595.279px" height="45.573px" viewBox="0 366.539 595.279 45.573" enable-background="new 0 366.539 595.279 45.573"
	 xml:space="preserve">
<circle fill="#4BD1DB" cx="234.973" cy="389.279" r="17.5"/>
<path opacity="0.4" fill="#4BD1DB" d="M234.973,411.779c-12.407,0-22.5-10.093-22.5-22.5s10.093-22.5,22.5-22.5
	s22.5,10.093,22.5,22.5S247.38,411.779,234.973,411.779z M234.973,368.779c-11.304,0-20.5,9.196-20.5,20.5s9.196,20.5,20.5,20.5
	s20.5-9.196,20.5-20.5S246.277,368.779,234.973,368.779z"/>
<circle fill="#4BD1DB" cx="366.639" cy="389.279" r="17.5"/>
<path opacity="0.4" fill="#4BD1DB" d="M366.639,411.779c-12.406,0-22.5-10.093-22.5-22.5s10.094-22.5,22.5-22.5
	s22.5,10.093,22.5,22.5S379.046,411.779,366.639,411.779z M366.639,368.779c-11.304,0-20.5,9.196-20.5,20.5s9.196,20.5,20.5,20.5
	s20.5-9.196,20.5-20.5S377.943,368.779,366.639,368.779z"/>
</svg>
